<?xml version="1.0" encoding="UTF-8"?>
<svg version="1.1" xmlns="http://www.w3.org/2000/svg" width="322" height="303">
<path d="M0 0 C106.26 0 212.52 0 322 0 C322 99.99 322 199.98 322 303 C215.74 303 109.48 303 0 303 C0 203.01 0 103.02 0 0 Z " fill="#FAF7F4" transform="translate(0,0)"/>
<path d="M0 0 C1.00575577 -0.00525696 2.01151154 -0.01051392 3.04774475 -0.01593018 C6.35742934 -0.02908588 9.66662926 -0.02040822 12.97631836 -0.01025391 C15.28364657 -0.01227575 17.59097415 -0.01518811 19.89830017 -0.01895142 C24.72750957 -0.02336864 29.55655221 -0.01696231 34.38574219 -0.00292969 C40.57189978 0.01417124 46.75766714 0.00431118 52.94381046 -0.01364708 C57.7059167 -0.02449284 62.46793056 -0.02103505 67.2300396 -0.0132637 C69.51098108 -0.0112644 71.79193098 -0.01371148 74.07286263 -0.02070236 C77.26104042 -0.02833072 80.44858784 -0.01669304 83.63671875 0 C84.57662659 -0.00607269 85.51653442 -0.01214539 86.48492432 -0.0184021 C92.96547451 0.04438053 97.10585762 1.05077971 102.09631348 5.45620728 C104.50883962 9.72415029 104.31307428 13.473358 104.27124023 18.29980469 C104.27824951 19.29390854 104.28525879 20.28801239 104.29248047 21.3122406 C104.31007275 24.59565235 104.29843106 27.87820069 104.28491211 31.16162109 C104.28760708 33.44699265 104.29148955 35.73236308 104.29650879 38.01773071 C104.30240589 42.80766719 104.29383532 47.59730525 104.27514648 52.38720703 C104.25238302 58.51962294 104.26546273 64.6513376 104.28943634 70.78372765 C104.30391038 75.50386815 104.29928042 80.22384324 104.28892517 84.9439888 C104.286261 87.20456653 104.28951669 89.46515939 104.29884338 91.72571945 C104.30903212 94.89014017 104.29347312 98.0534362 104.27124023 101.21777344 C104.27933716 102.14787735 104.28743408 103.07798126 104.29577637 104.03627014 C104.21832383 110.00388418 103.20264884 113.48404678 99.75366211 118.38818359 C95.60326046 122.42936414 91.55048589 123.96257997 85.87866211 124.82568359 C81.43393351 124.20342159 77.98095608 122.52401579 74.75366211 119.38818359 C70.35858554 112.43468719 70.21910923 106.6749618 70.36303711 98.57568359 C70.3686969 97.3662207 70.37435669 96.15675781 70.38018799 94.91064453 C70.40247598 91.06941189 70.45266117 87.22913161 70.50366211 83.38818359 C70.52373677 80.77491587 70.54198584 78.16163344 70.55834961 75.54833984 C70.60231612 69.1612993 70.66915353 62.77480951 70.75366211 56.38818359 C70.09366211 56.38818359 69.43366211 56.38818359 68.75366211 56.38818359 C68.75366211 57.04818359 68.75366211 57.70818359 68.75366211 58.38818359 C67.39819336 59.72021484 67.39819336 59.72021484 65.56616211 61.20068359 C61.6443262 64.45833761 57.99855141 67.7698275 54.87866211 71.82568359 C52.62208927 74.54684496 50.19149007 76.65687327 47.48803711 78.91552734 C44.2919214 81.62934631 41.4346103 84.50295095 38.87866211 87.82568359 C36.66464952 90.4955223 34.30970773 92.57674959 31.63256836 94.76318359 C29.21415861 96.85478121 26.99907976 99.11228516 24.75366211 101.38818359 C14.75366211 111.38818359 14.75366211 111.38818359 12.18725586 113.91162109 C1.89495919 124.38564371 -6.15514891 136.21574845 -6.55883789 151.20068359 C-6.44974757 158.52531953 -5.44281664 164.97985451 -1.43383789 171.20068359 C-0.24633789 173.38818359 -0.24633789 173.38818359 -0.91381836 175.74829102 C-2.39696719 178.68659961 -4.0305453 180.51497817 -6.37915039 182.81396484 C-7.18481445 183.60996094 -7.99047852 184.40595703 -8.82055664 185.22607422 C-9.66231445 186.04269531 -10.50407227 186.85931641 -11.37133789 187.70068359 C-12.22083008 188.53664062 -13.07032227 189.37259766 -13.94555664 190.23388672 C-16.0392093 192.29225309 -18.13954613 194.34328162 -20.24633789 196.38818359 C-28.5048906 192.63055834 -33.91625265 182.24448062 -37.25024414 174.14599609 C-43.05885132 158.06412682 -43.51538625 140.09601234 -36.47680664 124.24365234 C-33.11210195 117.0915952 -29.40790958 110.40253669 -24.24633789 104.38818359 C-23.3966644 103.35752275 -22.54778355 102.32620822 -21.69946289 101.29443359 C-15.71793177 94.10200468 -9.40499157 87.35808221 -2.70336914 80.83105469 C0.41342231 77.91029539 0.41342231 77.91029539 2.75366211 74.38818359 C3.41366211 74.38818359 4.07366211 74.38818359 4.75366211 74.38818359 C4.75366211 73.72818359 4.75366211 73.06818359 4.75366211 72.38818359 C6.40369039 71.03431424 8.07110081 69.70140217 9.75366211 68.38818359 C10.08366211 67.72818359 10.41366211 67.06818359 10.75366211 66.38818359 C11.41366211 66.38818359 12.07366211 66.38818359 12.75366211 66.38818359 C12.75366211 65.72818359 12.75366211 65.06818359 12.75366211 64.38818359 C17.05598769 59.62074173 17.05598769 59.62074173 20.75366211 58.38818359 C21.43600358 57.06280352 22.09974492 55.72781583 22.75366211 54.38818359 C24.15423539 52.82628593 25.61187222 51.31474962 27.10522461 49.84130859 C27.95600586 48.99697266 28.80678711 48.15263672 29.68334961 47.28271484 C31.0175293 45.97367188 31.0175293 45.97367188 32.37866211 44.63818359 C33.27584961 43.75001953 34.17303711 42.86185547 35.09741211 41.94677734 C37.31173215 39.7560139 39.53058646 37.57005596 41.75366211 35.38818359 C40.88161888 35.37938423 40.88161888 35.37938423 39.99195862 35.3704071 C33.90773941 35.3061705 27.82403442 35.22167483 21.74023438 35.12573242 C19.47370205 35.09260307 17.2070896 35.06453431 14.94042969 35.04174805 C11.67079723 35.00798124 8.40189113 34.95565387 5.13256836 34.89990234 C4.12907852 34.89351242 3.12558868 34.8871225 2.09169006 34.88053894 C-5.40223112 34.72607331 -12.14900684 33.87951509 -18.12133789 29.07568359 C-22.01536766 24.15088123 -23.95706163 20.00174966 -23.72290039 13.70068359 C-22.84397794 9.43574841 -20.50753153 6.20902036 -17.24633789 3.38818359 C-11.39719829 0.28434122 -6.55386622 -0.04243556 0 0 Z " fill="#165AC6" transform="translate(60.246337890625,61.61181640625)"/>
<path d="M0 0 C33 0 66 0 100 0 C100 9.24 100 18.48 100 28 C77.56 28 55.12 28 32 28 C32.495 33.445 32.495 33.445 33 39 C33.07296527 41.69061393 33.10864229 44.38263807 33.09765625 47.07421875 C33.09515869 48.34612061 33.09266113 49.61802246 33.09008789 50.9284668 C33.08098389 52.49894775 33.07187988 54.06942871 33.0625 55.6875 C33.041875 60.740625 33.02125 65.79375 33 71 C52.8 71 72.6 71 93 71 C93 80.57 93 90.14 93 100 C72.87 100 52.74 100 32 100 C32 123.43 32 146.86 32 171 C21.11 171 10.22 171 -1 171 C-1.02797442 158.81247976 -1.05128178 146.62503654 -1.0625 134.4375 C-1.06335602 133.51428452 -1.06421204 132.59106903 -1.06509399 131.63987732 C-1.10091405 87.75243389 -0.57365801 43.88483795 0 0 Z " fill="#1759C6" transform="translate(212,66)"/>
<path d="M0 0 C33 0 66 0 100 0 C100 9.24 100 18.48 100 28 C77.56 28 55.12 28 32 28 C32 42.19 32 56.38 32 71 C31.67 71 31.34 71 31 71 C30.67 56.48 30.34 41.96 30 27 C30.66 27 31.32 27 32 27 C32 26.34 32 25.68 32 25 C40.03188034 24.846172 48.06383645 24.69799096 56.09595203 24.5570364 C59.82550069 24.49140916 63.55499278 24.42383056 67.28442383 24.35180664 C70.88290566 24.28238323 74.48144571 24.21806705 78.08008385 24.15730476 C79.45364387 24.13321212 80.82717277 24.10727317 82.20066261 24.07946587 C84.12302257 24.04086039 86.04552205 24.00940214 87.96801758 23.97827148 C89.06277908 23.95828598 90.15754059 23.93830048 91.28547668 23.91770935 C94 24 94 24 97 25 C97.33 17.41 97.66 9.82 98 2 C66.32 2 34.64 2 2 2 C1.67 57.11 1.34 112.22 1 169 C10.57 169 20.14 169 30 169 C30 146.23 30 123.46 30 100 C30.66 100 31.32 100 32 100 C32 123.43 32 146.86 32 171 C21.11 171 10.22 171 -1 171 C-1.02797442 158.81247976 -1.05128178 146.62503654 -1.0625 134.4375 C-1.06335602 133.51428452 -1.06421204 132.59106903 -1.06509399 131.63987732 C-1.10091405 87.75243389 -0.57365801 43.88483795 0 0 Z " fill="#275399" transform="translate(212,66)"/>
<path d="M0 0 C0.99 0.33 1.98 0.66 3 1 C3 1.66 3 2.32 3 3 C3.598125 3.103125 4.19625 3.20625 4.8125 3.3125 C7.31258286 4.09824033 8.37535082 4.96918853 10 7 C10 7.66 10 8.32 10 9 C11.98 9.495 11.98 9.495 14 10 C13.75559583 10.86050776 13.75559583 10.86050776 13.5062542 11.73839951 C13.00424967 13.98101537 12.88450301 15.8927618 12.89993286 18.18560791 C12.90289368 19.01254654 12.90585449 19.83948517 12.90890503 20.69148254 C12.91721344 21.5902562 12.92552185 22.48902985 12.93408203 23.41503906 C12.93875488 24.36837631 12.94342773 25.32171356 12.94824219 26.30393982 C12.95874059 28.37356962 12.97140192 30.44318931 12.98596573 32.51279449 C13.00798827 35.79179559 13.02206814 39.07073886 13.03366089 42.34979248 C13.06725157 51.6728914 13.10880033 60.99589484 13.17138672 70.31884766 C13.20910876 76.02280179 13.23208121 81.7266571 13.24569321 87.43071747 C13.25373147 89.60118106 13.26731766 91.77163163 13.28662491 93.94202423 C13.31320679 96.98393325 13.32100658 100.02537174 13.32470703 103.06738281 C13.3370639 103.95805954 13.34942078 104.84873627 13.3621521 105.7664032 C13.34193776 112.09155235 12.69101954 118.30898046 8 123 C6.515 122.505 6.515 122.505 5 122 C5.64932495 121.05476471 6.2986499 120.10952942 6.96765137 119.13565063 C9.63272607 114.4381145 9.56369963 110.12762575 9.51757812 104.82958984 C9.5245874 103.83198135 9.53159668 102.83437286 9.53881836 101.80653381 C9.5563569 98.52438138 9.54479164 95.24309798 9.53125 91.9609375 C9.53394566 89.67363317 9.5378287 87.38632996 9.54284668 85.09902954 C9.54873577 80.31265316 9.54019582 75.52657592 9.52148438 70.74023438 C9.49866973 64.60543769 9.5118381 58.47134002 9.53577423 52.33656883 C9.55022585 47.61651335 9.5456295 42.89662373 9.53526306 38.17656326 C9.53259538 35.9143325 9.53586698 33.65208666 9.54518127 31.3898735 C9.55533886 28.23004973 9.53985697 25.07136035 9.51757812 21.91162109 C9.52567505 20.97746872 9.53377197 20.04331635 9.54211426 19.08085632 C9.48886019 15.00432858 9.34128355 12.59421828 7.28015137 9.00552368 C1.99000104 4.35253357 -3.27564024 4.70767624 -10.00341797 4.7253418 C-11.00727539 4.72023087 -12.01113281 4.71511993 -13.04541016 4.70985413 C-16.3610634 4.69596389 -19.67650863 4.69691459 -22.9921875 4.69921875 C-25.29997841 4.69533133 -27.6077686 4.69099656 -29.91555786 4.68623352 C-34.75248534 4.67877239 -39.58933983 4.67906171 -44.42626953 4.68432617 C-50.61909348 4.69011861 -56.81161815 4.6731945 -63.00439262 4.6499815 C-67.77082053 4.63523588 -72.53717652 4.63437364 -77.3036232 4.63749123 C-79.5865348 4.63697837 -81.86945047 4.6317473 -84.15233994 4.62167931 C-87.34768761 4.60931739 -90.54245431 4.61610569 -93.73779297 4.62768555 C-95.14697495 4.61621994 -95.14697495 4.61621994 -96.58462524 4.60452271 C-102.78084158 4.65405403 -107.87902099 5.35231232 -112.77734375 9.5078125 C-115.71678691 13.60521812 -116.6690678 16.80105931 -116.359375 21.859375 C-115.50765391 26.93267018 -113.05359307 30.90646845 -109 34 C-102.24250239 37.07265636 -95.73169895 37.46604323 -88.40234375 37.51171875 C-87.32747208 37.52966995 -86.2526004 37.54762115 -85.14515686 37.56611633 C-81.7426434 37.61990532 -78.34026768 37.65401436 -74.9375 37.6875 C-72.6178195 37.72070076 -70.29815711 37.75519294 -67.97851562 37.79101562 C-62.31913404 37.87561347 -56.65973391 37.94409511 -51 38 C-54.11772677 41.68458983 -57.21672032 45.34675126 -60.6484375 48.74609375 C-61.26074219 49.35517578 -61.87304688 49.96425781 -62.50390625 50.59179688 C-63.12136719 51.20087891 -63.73882812 51.80996094 -64.375 52.4375 C-65.33599609 53.39172852 -65.33599609 53.39172852 -66.31640625 54.36523438 C-67.87530879 55.91250332 -69.43651416 57.45736492 -71 59 C-71.33 58.01 -71.66 57.02 -72 56 C-70.890625 54.17578125 -70.890625 54.17578125 -69.25 52.3125 C-68.71890625 51.68988281 -68.1878125 51.06726563 -67.640625 50.42578125 C-66 49 -66 49 -63 49 C-61.92474806 46.34771188 -60.90543849 43.71631546 -60 41 C-66.19617605 39.88608071 -72.21799933 39.928048 -78.5 40 C-82.66669171 40.01071696 -86.83330382 40.00700403 -91 40 C-91.79229004 40.0009668 -92.58458008 40.00193359 -93.40087891 40.00292969 C-102.16474925 39.9584943 -110.26742565 39.1426726 -117 33 C-118.50667101 30.00297573 -118.8024594 27.31752002 -119 24 C-119.2475 22.80375 -119.495 21.6075 -119.75 20.375 C-120.04031494 16.45574832 -119.27867564 13.69395184 -118 10 C-117.67 9.01 -117.34 8.02 -117 7 C-114.9375 6.3125 -114.9375 6.3125 -113 6 C-112.67 4.68 -112.34 3.36 -112 2 C-75.04 2 -38.08 2 0 2 C0 1.34 0 0.68 0 0 Z " fill="#E0F9FA" transform="translate(154,58)"/>
<path d="M0 0 C0.87052505 -0.00571014 1.74105011 -0.01142029 2.63795471 -0.01730347 C3.59021942 -0.01842133 4.54248413 -0.01953918 5.52360535 -0.02069092 C7.03136284 -0.02813828 7.03136284 -0.02813828 8.56958008 -0.03573608 C11.9008604 -0.05036255 15.23209309 -0.05716058 18.56340027 -0.06268311 C20.87644451 -0.06843421 23.18948874 -0.07419195 25.50253296 -0.07995605 C30.355588 -0.09046746 35.20862646 -0.0963092 40.06169128 -0.09979248 C46.27931298 -0.10527709 52.49671567 -0.12930403 58.71426868 -0.15776443 C63.49351643 -0.17639106 68.27271144 -0.18159644 73.05199242 -0.18312836 C75.34410995 -0.18615541 77.63622655 -0.19418567 79.92830849 -0.20731354 C83.13602468 -0.22437396 86.3432059 -0.22249356 89.5509491 -0.21600342 C90.49714111 -0.2252182 91.44333313 -0.23443298 92.41819763 -0.243927 C98.92650631 -0.20269105 103.0564947 0.79104761 108.07798767 5.20152283 C110.5001895 9.50703598 110.25943924 13.30180529 110.18547058 18.16314697 C110.18605469 19.16849487 110.18663879 20.17384277 110.1872406 21.20965576 C110.18445784 24.5267816 110.15335574 27.84300462 110.12199402 31.15997314 C110.11453234 33.46210743 110.10883906 35.76424808 110.10484314 38.06639099 C110.08958122 44.12132345 110.05029402 50.17587123 110.00602722 56.23065186 C109.96508691 62.41081539 109.94683473 68.59104117 109.92668152 74.77130127 C109.88380078 86.89451702 109.81554223 99.01744745 109.73136902 111.14044189 C108.74136902 111.63544189 108.74136902 111.63544189 107.73136902 112.14044189 C107.729944 110.84418381 107.72851898 109.54792572 107.72705078 108.21238708 C107.71040207 96.01346412 107.66769352 83.81487564 107.59927845 71.61612988 C107.56494566 65.34415566 107.53988866 59.07242666 107.53581238 52.800354 C107.53154298 46.75066134 107.50319278 40.70152243 107.45793724 34.65200233 C107.44491876 32.34070368 107.44066983 30.02933889 107.44521523 27.71800804 C107.45009016 24.48735674 107.4241657 21.2583434 107.39079285 18.02789307 C107.39941849 17.06620209 107.40804413 16.10451111 107.41693115 15.11367798 C107.37466298 12.68279885 107.30916792 10.50195123 106.73136902 8.14044189 C104.40980746 5.98681349 104.40980746 5.98681349 101.73136902 5.14044189 C101.23636902 4.64544189 101.23636902 4.64544189 100.73136902 4.14044189 C99.31503183 4.03284739 97.89342522 3.99363867 96.47305298 3.98222351 C95.55453552 3.97243469 94.63601807 3.96264587 93.68966675 3.95256042 C92.16621391 3.94392723 92.16621391 3.94392723 90.61198425 3.93511963 C89.01705643 3.92027023 89.01705643 3.92027023 87.38990784 3.90512085 C83.85661588 3.87339855 80.32331044 3.84870617 76.78996277 3.82403564 C74.34758138 3.80347537 71.90520362 3.78247916 69.46282959 3.76106262 C63.02006463 3.70574619 56.57726706 3.65637927 50.13444519 3.60821533 C43.56581199 3.55807001 36.99722641 3.50234765 30.42863464 3.44708252 C17.52958703 3.33938396 4.63049879 3.23777593 -8.26863098 3.14044189 C-6.53592939 -0.32496129 -3.48338511 0.01369944 0 0 Z " fill="#26509A" transform="translate(54.26863098144531,61.85955810546875)"/>
<path d="M0 0 C12.87345181 -0.02313161 25.74689872 -0.04091929 38.62036705 -0.05181217 C44.59750475 -0.0570392 50.57462827 -0.0641336 56.55175781 -0.07543945 C62.31591558 -0.0862747 68.08005968 -0.0922782 73.84422684 -0.09487724 C76.04753459 -0.09673034 78.25084156 -0.10034875 80.45414352 -0.10573006 C83.53113189 -0.11294892 86.60806317 -0.11399058 89.68505859 -0.11352539 C90.60359116 -0.11712067 91.52212372 -0.12071594 92.4684906 -0.12442017 C93.30424118 -0.1230455 94.13999176 -0.12167084 95.00106812 -0.12025452 C95.72928457 -0.12117631 96.45750103 -0.1220981 97.20778465 -0.12304783 C99 0 99 0 101 1 C102.0394775 4.1184325 102.11494838 6.27475586 102.09765625 9.54296875 C102.09282227 11.15268555 102.09282227 11.15268555 102.08789062 12.79492188 C102.07532227 14.47424805 102.07532227 14.47424805 102.0625 16.1875 C102.05798828 17.31865234 102.05347656 18.44980469 102.04882812 19.61523438 C102.03703498 22.41020927 102.0205765 25.2050782 102 28 C101.34 28 100.68 28 100 28 C100 19.75 100 11.5 100 3 C67 3 34 3 0 3 C0.020625 15.6225 0.04125 28.245 0.0625 41.25 C0.08771072 73.31619523 -0.08750016 105.37399919 -0.5 137.4375 C-0.51195782 138.36748306 -0.52391563 139.29746613 -0.53623581 140.25563049 C-0.68168659 151.50388534 -0.83598522 162.75200058 -1 174 C-1.33 174 -1.66 174 -2 174 C-2 117.24 -2 60.48 -2 2 C-1.34 2 -0.68 2 0 2 C0 1.34 0 0.68 0 0 Z " fill="#DBF4FC" transform="translate(212,63)"/>
<path d="M0 0 C1.95051967 0.00503046 3.90104061 0.0095906 5.8515625 0.01367188 C10.56776668 0.0236808 15.28378902 0.04327631 20 0.0625 C20 9.6325 20 19.2025 20 29.0625 C0.2 29.0625 -19.6 29.0625 -40 29.0625 C-40 28.7325 -40 28.4025 -40 28.0625 C-29.605 27.5675 -29.605 27.5675 -19 27.0625 C-19 26.0725 -19 25.0825 -19 24.0625 C-8.44 24.0625 2.12 24.0625 13 24.0625 C13 18.1225 13 12.1825 13 6.0625 C13.66 6.0625 14.32 6.0625 15 6.0625 C15 9.3625 15 12.6625 15 16.0625 C15.66 16.0625 16.32 16.0625 17 16.0625 C17.02736707 14.66677948 17.04655989 13.27089779 17.0625 11.875 C17.07410156 11.09769531 17.08570313 10.32039062 17.09765625 9.51953125 C17.04662335 6.61520381 17.04662335 6.61520381 16 2.0625 C-1.82 2.0625 -19.64 2.0625 -38 2.0625 C-38 1.7325 -38 1.4025 -38 1.0625 C-25.31895851 0.05532917 -12.71474009 -0.05775465 0 0 Z " fill="#0D4BAF" transform="translate(285,136.9375)"/>
<path d="M0 0 C0.33 0 0.66 0 1 0 C1 54.78 1 109.56 1 166 C10.57 166 20.14 166 30 166 C30 143.23 30 120.46 30 97 C30.66 97 31.32 97 32 97 C32 120.43 32 143.86 32 168 C21.11 168 10.22 168 -1 168 C-1.02792558 155.74998006 -1.05125531 143.50003609 -1.0625 131.25 C-1.06335602 130.32421646 -1.06421204 129.39843292 -1.06509399 128.44459534 C-1.08998207 97.87656542 -0.89213681 67.31547447 -0.5 36.75 C-0.48804218 35.81744888 -0.47608437 34.88489777 -0.46376419 33.92408752 C-0.3179722 22.61593251 -0.16361971 11.30791104 0 0 Z " fill="#183D84" transform="translate(212,69)"/>
<path d="M0 0 C0.66 0 1.32 0 2 0 C2 26.4 2 52.8 2 80 C2.66 80 3.32 80 4 80 C4.33 85.28 4.66 90.56 5 96 C4.01 96 3.02 96 2 96 C2 98.64 2 101.28 2 104 C4.64 104 7.28 104 10 104 C10 104.33 10 104.66 10 105 C7.36 105 4.72 105 2 105 C2 105.99 2 106.98 2 108 C4.31 108 6.62 108 9 108 C8.505 108.99 8.505 108.99 8 110 C4.9375 110.625 4.9375 110.625 2 111 C2.08378906 112.02351563 2.16757813 113.04703125 2.25390625 114.1015625 C3.35054204 129.43516277 2.66061538 144.66355998 2 160 C6.95 160 11.9 160 17 160 C16.01 160.99 16.01 160.99 15 162 C11.7421875 161.9765625 11.7421875 161.9765625 7.875 161.625 C6.59367188 161.51414063 5.31234375 161.40328125 3.9921875 161.2890625 C3.00476563 161.19367188 2.01734375 161.09828125 1 161 C0.3864529 144.14703608 -0.10316413 127.30272957 -0.125 110.4375 C-0.12749756 109.76477051 -0.12999512 109.09204102 -0.13256836 108.39892578 C-0.15370101 101.51306436 -0.08171388 94.80792945 1 88 C0.34 88 -0.32 88 -1 88 C-0.67 58.96 -0.34 29.92 0 0 Z " fill="#0958B3" transform="translate(216,73)"/>
<path d="M0 0 C22.44 0 44.88 0 68 0 C62.89802484 2.55098758 58.94338637 3.12628304 53.29174805 3.11352539 C52.17096359 3.11344986 51.05017914 3.11337433 49.89543152 3.11329651 C48.6963063 3.10813522 47.49718109 3.10297394 46.26171875 3.09765625 C45.02581497 3.0962413 43.78991119 3.09482635 42.51655579 3.09336853 C39.24341655 3.08872618 35.97032713 3.07975311 32.69720459 3.06866455 C29.35217752 3.05840404 26.00714827 3.05394631 22.66210938 3.04882812 C16.1080535 3.03780907 9.55403082 3.02107836 3 3 C3.14800049 3.74185547 3.29600098 4.48371094 3.44848633 5.24804688 C3.63693115 6.22837891 3.82537598 7.20871094 4.01953125 8.21875 C4.20878174 9.18748047 4.39803223 10.15621094 4.59301758 11.15429688 C5.18205059 15.2729344 4.63179039 18.92393294 4 23 C3.776499 24.99836185 3.56844346 26.99850496 3.375 29 C3.27960938 29.928125 3.18421875 30.85625 3.0859375 31.8125 C3.05757812 32.534375 3.02921875 33.25625 3 34 C3.33 34.33 3.66 34.66 4 35 C4 37.31 4 39.62 4 42 C22.81 42 41.62 42 61 42 C61 42.33 61 42.66 61 43 C41.2 43 21.4 43 1 43 C0.67 28.81 0.34 14.62 0 0 Z " fill="#E6F9FD" transform="translate(244,94)"/>
<path d="M0 0 C0.66 0.33 1.32 0.66 2 1 C1.79503906 1.71285156 1.59007812 2.42570313 1.37890625 3.16015625 C1.10949219 4.11792969 0.84007812 5.07570312 0.5625 6.0625 C0.16224609 7.47208984 0.16224609 7.47208984 -0.24609375 8.91015625 C-4.85246885 27.78913401 -1.80298187 45.40440077 8 62 C10.5059497 65.48730064 13.15082835 68.7882065 16 72 C20.80317628 69.85211471 23.95675061 66.37331763 27.625 62.6875 C28.305625 62.02298828 28.98625 61.35847656 29.6875 60.67382812 C34.4566557 56.03478646 34.4566557 56.03478646 37 50 C36.67 49.34 36.34 48.68 36 48 C37.98 48 39.96 48 42 48 C42.38133299 49.9914056 42.71325582 51.99279077 43 54 C42 55 42 55 39 56 C38.34 56 37.68 56 37 56 C36.7525 56.5775 36.505 57.155 36.25 57.75 C34.17445909 61.48597363 32.06826056 63.64391315 28 65 C28 65.99 28 66.98 28 68 C27.236875 68.45375 26.47375 68.9075 25.6875 69.375 C22.81614514 70.80835735 22.81614514 70.80835735 21.5 73.6875 C20.7575 74.8321875 20.7575 74.8321875 20 76 C17.3125 76.3125 17.3125 76.3125 15 76 C15 76.66 15 77.32 15 78 C16.485 78.495 16.485 78.495 18 79 C16.68 79 15.36 79 14 79 C13.71125 78.2575 13.4225 77.515 13.125 76.75 C11.67850272 73.21411776 10.38421695 70.46571751 7.9375 67.5 C6.07220944 65.09317347 5.70826198 63.8330479 5 61 C4.01 60.67 3.02 60.34 2 60 C1.3125 57.9375 1.3125 57.9375 1 56 C-0.65 55.67 -2.3 55.34 -4 55 C-3.56054688 52.265625 -3.56054688 52.265625 -3.12109375 49.53125 C-2.98971328 46.78497429 -3.37203258 44.24490537 -3.74438477 41.52929688 C-4.31596099 35.87358564 -4.22712331 30.17913716 -4.25 24.5 C-4.270625 23.21996094 -4.29125 21.93992188 -4.3125 20.62109375 C-4.34548788 12.64627281 -3.56467477 7.12934953 0 0 Z " fill="#D4EBF7" transform="translate(22,185)"/>
<path d="M0 0 C0.33 0.66 0.66 1.32 1 2 C1.66 2.33 2.32 2.66 3 3 C1.68 3.33 0.36 3.66 -1 4 C-1 4.66 -1 5.32 -1 6 C-1.66 6 -2.32 6 -3 6 C-2.896875 6.721875 -2.79375 7.44375 -2.6875 8.1875 C-3.12466537 12.12198832 -5.16379643 13.37132352 -8 16 C-9.07957436 19.23872309 -9.56113497 22.31164211 -10.0625 25.6875 C-10.23910156 26.86699219 -10.41570313 28.04648438 -10.59765625 29.26171875 C-10.73042969 30.16535156 -10.86320312 31.06898438 -11 32 C-11.99 32 -12.98 32 -14 32 C-13.84789062 33.11246094 -13.69578125 34.22492188 -13.5390625 35.37109375 C-12.93007031 40.25917067 -12.62700314 45.14473291 -12.375 50.0625 C-12.3234375 50.92166016 -12.271875 51.78082031 -12.21875 52.66601562 C-12.01779143 56.53446808 -11.92428579 60.16203864 -12.55859375 63.9921875 C-13.33118046 66.97567303 -13.33118046 66.97567303 -11.6875 69.0625 C-10.8521875 70.0215625 -10.8521875 70.0215625 -10 71 C-9.32136945 72.9959722 -8.65358081 74.99568551 -8 77 C-7.34 77.66 -6.68 78.32 -6 79 C-3 84.42307692 -3 84.42307692 -3 88 C-15.26902959 73.68023923 -19.39183356 57.53589665 -18 39 C-16.48279635 25.15179802 -9.99112715 9.99112715 0 0 Z " fill="#1E56B0" transform="translate(37,165)"/>
<path d="M0 0 C0 4.53055345 -2.67264664 7.78714752 -4.98046875 11.5546875 C-10.42362352 20.69918752 -11.44489719 30.51820359 -9.4296875 40.953125 C-8.38341176 44.63161022 -7.26620138 47.5869289 -5.1875 50.8125 C-4 53 -4 53 -4.66748047 55.36010742 C-6.1506293 58.29841602 -7.78420741 60.12679458 -10.1328125 62.42578125 C-11.34130859 63.61977539 -11.34130859 63.61977539 -12.57421875 64.83789062 C-13.41597656 65.65451172 -14.25773437 66.47113281 -15.125 67.3125 C-15.97449219 68.14845703 -16.82398438 68.98441406 -17.69921875 69.84570312 C-19.79287141 71.9040695 -21.89320824 73.95509803 -24 76 C-25.9375 75.1875 -25.9375 75.1875 -28 74 C-28.33 73.01 -28.66 72.02 -29 71 C-28.360625 70.87625 -27.72125 70.7525 -27.0625 70.625 C-26.0415625 70.315625 -26.0415625 70.315625 -25 70 C-24.505 69.01 -24.505 69.01 -24 68 C-24 68.66 -24 69.32 -24 70 C-20.2248296 68.89398417 -20.2248296 68.89398417 -17.875 65.9375 C-17.58625 65.298125 -17.2975 64.65875 -17 64 C-15.515 63.505 -15.515 63.505 -14 63 C-13.26676204 60.98491642 -13.26676204 60.98491642 -13 59 C-11.515 59.495 -11.515 59.495 -10 60 C-10.061875 59.2575 -10.12375 58.515 -10.1875 57.75 C-9.96905704 54.54616994 -9.09749995 53.35968744 -7 51 C-8.485 50.505 -8.485 50.505 -10 50 C-10.7166207 47.68152126 -11.38242027 45.34680297 -12 43 C-12.66 42.34 -13.32 41.68 -14 41 C-14.25878906 38.234375 -14.25878906 38.234375 -14.265625 34.75 C-14.26949219 32.87828125 -14.26949219 32.87828125 -14.2734375 30.96875 C-14.26570313 29.6590625 -14.25796875 28.349375 -14.25 27 C-14.25773437 25.6903125 -14.26546875 24.380625 -14.2734375 23.03125 C-14.27085938 21.7834375 -14.26828125 20.535625 -14.265625 19.25 C-14.26336914 18.10015625 -14.26111328 16.9503125 -14.25878906 15.765625 C-14 13 -14 13 -12 11 C-11.67 11.66 -11.34 12.32 -11 13 C-10.54560547 11.95199219 -10.54560547 11.95199219 -10.08203125 10.8828125 C-9.66308594 9.97273437 -9.24414062 9.06265625 -8.8125 8.125 C-8.40644531 7.22007812 -8.00039063 6.31515625 -7.58203125 5.3828125 C-5.67983427 2.51777507 -4.22461522 2.0027445 -1 1 C-0.67 0.67 -0.34 0.34 0 0 Z " fill="#1550BB" transform="translate(64,182)"/>
<path d="M0 0 C20.13 0 40.26 0 61 0 C61 0.33 61 0.66 61 1 C60.31983826 1.01030746 59.63967651 1.02061493 58.93890381 1.03123474 C51.86623582 1.13933019 44.79369444 1.25392595 37.72119141 1.37231445 C35.08091885 1.41565349 32.44061845 1.4573293 29.80029297 1.49731445 C26.00740158 1.55504166 22.21465021 1.61872949 18.421875 1.68359375 C16.64825592 1.70866249 16.64825592 1.70866249 14.83880615 1.73423767 C13.73796692 1.75418289 12.63712769 1.77412811 11.50292969 1.79467773 C10.53474304 1.81022202 9.5665564 1.8257663 8.56903076 1.84178162 C6.2403493 1.98519766 4.23155783 2.34353972 2 3 C2.06118293 11.2929918 2.13826785 19.5856175 2.23571491 27.87825489 C2.28046171 31.72879256 2.31970798 35.57922338 2.34643555 39.42993164 C2.37242607 43.14541565 2.41279735 46.8604894 2.46318626 50.57571983 C2.47988396 51.99385161 2.49138017 53.41205439 2.49761391 54.83027077 C2.50722254 56.8151024 2.53696284 58.79980582 2.56762695 60.78442383 C2.57873001 61.91471512 2.58983307 63.04500641 2.60127258 64.20954895 C3.0463626 67.32446372 3.66152707 68.03691141 6 70 C6 70.66 6 71.32 6 72 C3.36 72.99 0.72 73.98 -2 75 C-2 74.34 -2 73.68 -2 73 C-10.25 73 -18.5 73 -27 73 C-27 72.34 -27 71.68 -27 71 C-18.09 71 -9.18 71 0 71 C0 47.57 0 24.14 0 0 Z " fill="#D0E8F5" transform="translate(244,166)"/>
<path d="M0 0 C0.33 0 0.66 0 1 0 C1.01030746 0.61085953 1.02061493 1.22171906 1.03123474 1.85108948 C1.13967588 8.22675468 1.25424162 14.60228925 1.37231445 20.9777832 C1.41554308 23.35503396 1.45722636 25.73231335 1.49731445 28.10961914 C1.55531024 31.5328025 1.61891954 34.95584334 1.68359375 38.37890625 C1.70030624 39.43646622 1.71701874 40.49402618 1.73423767 41.58363342 C1.83847811 46.81262957 2.10737005 51.8443473 3 57 C4.98 57 6.96 57 9 57 C8.34 55.02 7.68 53.04 7 51 C7.66 50.34 8.32 49.68 9 49 C9.99 49 10.98 49 12 49 C12.33 51.31 12.66 53.62 13 56 C14.32 56 15.64 56 17 56 C17.33 56.99 17.66 57.98 18 59 C21.05847848 59.54372951 23.88772805 60 27 60 C27.33 59.34 27.66 58.68 28 58 C28.66 58 29.32 58 30 58 C28.7903779 61.76326875 26.50228744 63.37588826 23.0546875 65.1640625 C18.58490314 66.98256792 14.43616021 67.860834 9.7890625 66.21875 C4.57509484 63.35009865 1.9330475 59.64782113 0 54 C-0.5257948 49.79293182 -0.46731332 45.64049247 -0.390625 41.40625 C-0.38496521 40.21898315 -0.37930542 39.03171631 -0.37347412 37.80847168 C-0.35119009 34.03856069 -0.30100585 30.26962087 -0.25 26.5 C-0.22992482 23.93490962 -0.21167584 21.36980425 -0.1953125 18.8046875 C-0.1513513 12.53613031 -0.08451805 6.26813456 0 0 Z " fill="#1357B8" transform="translate(131,119)"/>
<path d="M0 0 C0.66 0.33 1.32 0.66 2 1 C1.360625 1.78375 0.72125 2.5675 0.0625 3.375 C-1.98142313 5.79539281 -1.98142313 5.79539281 -3 8 C-2.34 8 -1.68 8 -1 8 C-1 10.64 -1 13.28 -1 16 C1.64 16 4.28 16 7 16 C8.65800798 20.42135462 7.66509036 22.67927714 7 28 C31.255 28.495 31.255 28.495 56 29 C56 29.33 56 29.66 56 30 C49.00753237 30.10167676 42.01525642 30.17158171 35.0222168 30.21972656 C32.64486568 30.23980363 30.2675637 30.26707113 27.89038086 30.30175781 C24.46716155 30.35044614 21.04459694 30.37300853 17.62109375 30.390625 C16.56353378 30.41127014 15.50597382 30.43191528 14.41636658 30.45318604 C8.03795707 30.45511213 4.16906217 29.83328564 -1 26 C-4.92585437 20.9377141 -6.44395394 16.74940622 -6.43359375 10.4296875 C-5.66291501 6.11110932 -2.89722464 3.1645281 0 0 Z " fill="#1956B5" transform="translate(43,65)"/>
<path d="M0 0 C0 0.66 0 1.32 0 2 C0.99 2.66 1.98 3.32 3 4 C-18.45 4 -39.9 4 -62 4 C-62 18.19 -62 32.38 -62 47 C-62.33 47 -62.66 47 -63 47 C-63.33 32.48 -63.66 17.96 -64 3 C-63.34 3 -62.68 3 -62 3 C-62 2.34 -62 1.68 -62 1 C-54.45607437 0.85653025 -46.91212716 0.71423931 -39.36816406 0.57275391 C-36.80370586 0.5245206 -34.23925265 0.47602102 -31.67480469 0.42724609 C-27.98113272 0.35704054 -24.28744365 0.28780389 -20.59375 0.21875 C-19.4538562 0.19687622 -18.3139624 0.17500244 -17.13952637 0.15246582 C-11.4251143 0.0465842 -5.71538798 -0.0243208 0 0 Z " fill="#18448B" transform="translate(306,90)"/>
<path d="M0 0 C0.33 0 0.66 0 1 0 C1 9.57 1 19.14 1 29 C-18.8 29 -38.6 29 -59 29 C-59 28.67 -59 28.34 -59 28 C-48.605 27.505 -48.605 27.505 -38 27 C-38 26.01 -38 25.02 -38 24 C-33.49765627 23.95055295 -28.9954707 23.91425839 -24.49291992 23.89013672 C-22.96131639 23.88008065 -21.42973205 23.866434 -19.89819336 23.84912109 C-17.69640364 23.82485502 -15.49486781 23.81351312 -13.29296875 23.8046875 C-12.60849167 23.79436493 -11.92401459 23.78404236 -11.21879578 23.77340698 C-7.56938339 23.77254618 -6.12851498 23.91432334 -3 26 C-3.66 26 -4.32 26 -5 26 C-5 26.66 -5 27.32 -5 28 C-3.35 28 -1.7 28 0 28 C0 18.76 0 9.52 0 0 Z " fill="#0D409E" transform="translate(304,137)"/>
<path d="M0 0 C0.70703125 2.23046875 0.70703125 2.23046875 1 5 C-0.36328125 7.23828125 -0.36328125 7.23828125 -2.3125 9.3125 C-2.94800781 10.00988281 -3.58351563 10.70726563 -4.23828125 11.42578125 C-6 13 -6 13 -8 13 C-8 13.66 -8 14.32 -8 15 C-8.66 15 -9.32 15 -10 15 C-10.2475 15.61875 -10.495 16.2375 -10.75 16.875 C-12.20628639 19.35068687 -13.37812506 19.95125002 -16 21 C-16 21.66 -16 22.32 -16 23 C-16.66 23 -17.32 23 -18 23 C-18.20367187 23.53109375 -18.40734375 24.0621875 -18.6171875 24.609375 C-20.59505609 28.02874104 -23.30326899 30.51337921 -26.125 33.25 C-26.96998047 34.08144531 -26.96998047 34.08144531 -27.83203125 34.9296875 C-29.21686028 36.29104485 -30.60783204 37.64614859 -32 39 C-33 36 -33 36 -31.8125 33.5 C-30.04635087 31.06393224 -28.39627864 29.757271 -26 28 C-25.67 27.01 -25.34 26.02 -25 25 C-24.34 25 -23.68 25 -23 25 C-22.67 24.34 -22.34 23.68 -22 23 C-21.01979625 21.9805881 -20.02196992 20.97753644 -19 20 C-19.66 19.67 -20.32 19.34 -21 19 C-18.64561267 17.57055055 -17.51967567 16.91338739 -14.75 17.375 C-13.88375 17.684375 -13.88375 17.684375 -13 18 C-13.33 15.69 -13.66 13.38 -14 11 C-11 11 -11 11 -9 12 C-9.33 11.01 -9.66 10.02 -10 9 C-8.35 8.67 -6.7 8.34 -5 8 C-5.33 6.35 -5.66 4.7 -6 3 C-2.25 0 -2.25 0 0 0 Z " fill="#E1E6F3" transform="translate(81,113)"/>
<path d="M0 0 C30.03 0 60.06 0 91 0 C91 0.33 91 0.66 91 1 C76.48 1.33 61.96 1.66 47 2 C47 2.33 47 2.66 47 3 C41.43157229 3.04963288 35.86327489 3.08582963 30.29467773 3.10986328 C28.40240229 3.11988815 26.51014222 3.13351155 24.61791992 3.15087891 C21.8897725 3.17528222 19.16183085 3.18651845 16.43359375 3.1953125 C15.59477158 3.20563507 14.7559494 3.21595764 13.89170837 3.22659302 C8.8701288 3.22754087 4.76106417 2.61591021 0 1 C0 0.67 0 0.34 0 0 Z " fill="#205FCB" transform="translate(219,68)"/>
<path d="M0 0 C0.66 0 1.32 0 2 0 C2.33 18.48 2.66 36.96 3 56 C2.01 55.67 1.02 55.34 0 55 C-0.01401855 53.12296387 -0.01401855 53.12296387 -0.02832031 51.20800781 C-0.06820482 46.5634405 -0.13395941 41.91953665 -0.20751953 37.27539062 C-0.23573807 35.26571173 -0.25694821 33.25592166 -0.27099609 31.24609375 C-0.29241335 28.35619151 -0.33905703 25.4676271 -0.390625 22.578125 C-0.39185364 21.68007141 -0.39308228 20.78201782 -0.39434814 19.85675049 C-0.48371356 14.81184057 -0.48371356 14.81184057 -2.85058594 10.46386719 C-5.02443101 8.84038399 -5.02443101 8.84038399 -8 8 C-7.38125 7.7525 -6.7625 7.505 -6.125 7.25 C-3.64931313 5.79371361 -3.04874998 4.62187494 -2 2 C-1.34 2 -0.68 2 0 2 C0 1.34 0 0.68 0 0 Z " fill="#C9DFFC" transform="translate(129,118)"/>
<path d="M0 0 C0.66 0.33 1.32 0.66 2 1 C0.57573507 2.66164242 -0.84861651 4.3232093 -2.2734375 5.984375 C-3.40537007 7.30581665 -4.53563964 8.62868503 -5.6640625 9.953125 C-6.18742187 10.56671875 -6.71078125 11.1803125 -7.25 11.8125 C-7.96929687 12.65748047 -7.96929687 12.65748047 -8.703125 13.51953125 C-9.75610282 14.7215752 -10.87002833 15.87002833 -12 17 C-12.474375 17.845625 -12.94875 18.69125 -13.4375 19.5625 C-15 22 -15 22 -18 23 C-18.66 22.67 -19.32 22.34 -20 22 C-19.938125 22.928125 -19.87625 23.85625 -19.8125 24.8125 C-20 28 -20 28 -21.3125 29.8125 C-23.48308405 31.33994803 -25.33812038 32 -28 32 C-28.185625 33.2065625 -28.185625 33.2065625 -28.375 34.4375 C-28.684375 35.7059375 -28.684375 35.7059375 -29 37 C-29.99 37.495 -29.99 37.495 -31 38 C-30.34 38.66 -29.68 39.32 -29 40 C-30.65 39.67 -32.3 39.34 -34 39 C-34 34.77471908 -33.74375671 33.95481492 -31 31 C-30.34 31 -29.68 31 -29 31 C-29 30.34 -29 29.68 -29 29 C-24.69767442 24.23255814 -24.69767442 24.23255814 -21 23 C-20.31765853 21.67461993 -19.65391719 20.33963224 -19 19 C-17.59942672 17.43810233 -16.14178989 15.92656603 -14.6484375 14.453125 C-13.79765625 13.60878906 -12.946875 12.76445313 -12.0703125 11.89453125 C-10.73613281 10.58548828 -10.73613281 10.58548828 -9.375 9.25 C-8.4778125 8.36183594 -7.580625 7.47367187 -6.65625 6.55859375 C-4.44192996 4.36783031 -2.22307565 2.18187237 0 0 Z " fill="#2557A8" transform="translate(102,97)"/>
<path d="M0 0 C1.98 0 3.96 0 6 0 C6.38133299 1.9914056 6.71325582 3.99279077 7 6 C6 7 6 7 3 8 C2.34 8 1.68 8 1 8 C0.7525 8.5775 0.505 9.155 0.25 9.75 C-1.82554091 13.48597363 -3.93173944 15.64391315 -8 17 C-8 17.99 -8 18.98 -8 20 C-9.1446875 20.680625 -9.1446875 20.680625 -10.3125 21.375 C-13.18385486 22.80835735 -13.18385486 22.80835735 -14.5 25.6875 C-14.995 26.450625 -15.49 27.21375 -16 28 C-18.6875 28.3125 -18.6875 28.3125 -21 28 C-21 28.66 -21 29.32 -21 30 C-20.01 30.33 -19.02 30.66 -18 31 C-19.32 31 -20.64 31 -22 31 C-23.25664978 28.09399739 -24 26.20395416 -24 23 C-23.19046875 23.33257812 -22.3809375 23.66515625 -21.546875 24.0078125 C-17.32328307 23.99850943 -16.77263781 23.33651146 -13.765625 20.5546875 C-12.24216287 19.01261414 -10.73749516 17.4517959 -9.25 15.875 C-8.48300781 15.1015625 -7.71601562 14.328125 -6.92578125 13.53125 C-1.93504825 8.42679744 -1.93504825 8.42679744 1 2 C0.67 1.34 0.34 0.68 0 0 Z " fill="#DEEFF4" transform="translate(58,233)"/>
<path d="M0 0 C0.99 0.495 0.99 0.495 2 1 C2 3.31 2 5.62 2 8 C4.64 8 7.28 8 10 8 C10 8.33 10 8.66 10 9 C7.36 9 4.72 9 2 9 C2 9.99 2 10.98 2 12 C4.31 12 6.62 12 9 12 C8.67 12.66 8.34 13.32 8 14 C4.9375 14.625 4.9375 14.625 2 15 C2.08378906 16.02351563 2.16757813 17.04703125 2.25390625 18.1015625 C3.35054204 33.43516277 2.66061538 48.66355998 2 64 C6.95 64 11.9 64 17 64 C16.01 64.99 16.01 64.99 15 66 C11.7421875 65.9765625 11.7421875 65.9765625 7.875 65.625 C6.59367188 65.51414062 5.31234375 65.40328125 3.9921875 65.2890625 C3.00476563 65.19367188 2.01734375 65.09828125 1 65 C0.21085518 43.32370283 -0.14260068 21.69066084 0 0 Z " fill="#094FC2" transform="translate(216,169)"/>
<path d="M0 0 C1.0394775 3.1184325 1.11494838 5.27475586 1.09765625 8.54296875 C1.09282227 10.15268555 1.09282227 10.15268555 1.08789062 11.79492188 C1.07532227 13.47424805 1.07532227 13.47424805 1.0625 15.1875 C1.05798828 16.31865234 1.05347656 17.44980469 1.04882812 18.61523438 C1.03703498 21.41020927 1.0205765 24.2050782 1 27 C0.34 27 -0.32 27 -1 27 C-1 18.75 -1 10.5 -1 2 C-24.1 1.67 -47.2 1.34 -71 1 C-71 0.67 -71 0.34 -71 0 C-62.77643894 -0.15425925 -54.55279985 -0.3024354 -46.3289938 -0.4429636 C-42.50987711 -0.50841325 -38.69082021 -0.57591473 -34.87182617 -0.64819336 C-31.1825545 -0.71793988 -27.4932234 -0.78218165 -23.80378914 -0.84269524 C-22.40004086 -0.86666998 -20.99632431 -0.89258886 -19.59264946 -0.92053413 C-17.61842188 -0.95949783 -15.64404675 -0.99074983 -13.66967773 -1.02172852 C-12.54826889 -1.04171402 -11.42686005 -1.06169952 -10.27146912 -1.08229065 C-6.78087382 -0.99448809 -3.44436911 -0.5570633 0 0 Z " fill="#EBFAFE" transform="translate(313,64)"/>
<path d="M0 0 C0.33 0 0.66 0 1 0 C1.01030746 0.61085953 1.02061493 1.22171906 1.03123474 1.85108948 C1.13967588 8.22675468 1.25424162 14.60228925 1.37231445 20.9777832 C1.41554308 23.35503396 1.45722636 25.73231335 1.49731445 28.10961914 C1.55531024 31.5328025 1.61891954 34.95584334 1.68359375 38.37890625 C1.70030624 39.43646622 1.71701874 40.49402618 1.73423767 41.58363342 C1.87445524 49.34270526 1.87445524 49.34270526 3 57 C3.66 57.33 4.32 57.66 5 58 C5.33 58.99 5.66 59.98 6 61 C9.79572069 63.93398951 12.58270501 64.34342731 17.3125 64.1875 C18.38113281 64.16042969 19.44976562 64.13335937 20.55078125 64.10546875 C21.76314453 64.05326172 21.76314453 64.05326172 23 64 C23.33 62.68 23.66 61.36 24 60 C24.99 60 25.98 60 27 60 C27.33 59.34 27.66 58.68 28 58 C28.66 58 29.32 58 30 58 C28.7903779 61.76326875 26.50228744 63.37588826 23.0546875 65.1640625 C18.58490314 66.98256792 14.43616021 67.860834 9.7890625 66.21875 C4.57509484 63.35009865 1.9330475 59.64782113 0 54 C-0.5257948 49.79293182 -0.46731332 45.64049247 -0.390625 41.40625 C-0.38496521 40.21898315 -0.37930542 39.03171631 -0.37347412 37.80847168 C-0.35119009 34.03856069 -0.30100585 30.26962087 -0.25 26.5 C-0.22992482 23.93490962 -0.21167584 21.36980425 -0.1953125 18.8046875 C-0.1513513 12.53613031 -0.08451805 6.26813456 0 0 Z " fill="#153A81" transform="translate(131,119)"/>
<path d="M0 0 C0.66 0.33 1.32 0.66 2 1 C-1.14771822 5.00618683 -4.3900634 8.30498231 -8.30078125 11.5625 C-11.46524175 14.23956084 -14.29827362 17.08049647 -16.8125 20.375 C-19.84327464 24.01192957 -23.38629457 26.956418 -27 30 C-27.66 29.67 -28.32 29.34 -29 29 C-28.57847656 28.60167969 -28.15695313 28.20335937 -27.72265625 27.79296875 C-27.17480469 27.26316406 -26.62695312 26.73335937 -26.0625 26.1875 C-25.51722656 25.66542969 -24.97195312 25.14335937 -24.41015625 24.60546875 C-22.76480908 22.94187802 -22.76480908 22.94187802 -22 20 C-21.34 20 -20.68 20 -20 20 C-20.33 19.01 -20.66 18.02 -21 17 C-20.01 16.67 -19.02 16.34 -18 16 C-17.34 15.01 -16.68 14.02 -16 13 C-15.34 13.33 -14.68 13.66 -14 14 C-13.67 12.68 -13.34 11.36 -13 10 C-12.01 10 -11.02 10 -10 10 C-9.443125 8.88625 -8.88625 7.7725 -8.3125 6.625 C-6.76252689 3.87933335 -6.21599957 3.11051141 -3.3125 1.625 C-2.549375 1.41875 -1.78625 1.2125 -1 1 C-0.67 0.67 -0.34 0.34 0 0 Z " fill="#204D94" transform="translate(116,129)"/>
<path d="M0 0 C0.33 0 0.66 0 1 0 C1.33 1.65 1.66 3.3 2 5 C2.33 5 2.66 5 3 5 C3 15.56 3 26.12 3 37 C8.94 37 14.88 37 21 37 C21 37.33 21 37.66 21 38 C19.89140625 38.06058594 18.7828125 38.12117188 17.640625 38.18359375 C16.1770718 38.26802951 14.71353075 38.35267599 13.25 38.4375 C12.52039063 38.47681641 11.79078125 38.51613281 11.0390625 38.55664062 C7.5727027 38.76147098 4.34666974 39.0852002 1 40 C-0.63945963 36.72108075 -0.12030178 33.09386466 -0.09765625 29.4921875 C-0.0962413 28.65156769 -0.09482635 27.81094788 -0.09336853 26.94485474 C-0.08776237 24.25486725 -0.07520886 21.56496241 -0.0625 18.875 C-0.05748579 17.05338662 -0.05292275 15.23177193 -0.04882812 13.41015625 C-0.03779094 8.94007223 -0.0205222 4.47005014 0 0 Z " fill="#3A6ABA" transform="translate(242,100)"/>
<path d="M0 0 C1.71026738 3.32320247 3 6.21241079 3 10 C3.66 10 4.32 10 5 10 C5 10.66 5 11.32 5 12 C6.32 12 7.64 12 9 12 C9 13.32 9 14.64 9 16 C15.52126126 16.8147952 21.93577908 17.19656955 28.50390625 17.31640625 C29.4677977 17.33718735 30.43168915 17.35796844 31.42478943 17.37937927 C34.47062818 17.44418896 37.51654495 17.50343716 40.5625 17.5625 C42.64128376 17.60575062 44.72005994 17.64936688 46.79882812 17.69335938 C51.8658077 17.79979888 56.93286488 17.90125453 62 18 C62 18.33 62 18.66 62 19 C55.00753237 19.10167676 48.01525642 19.17158171 41.0222168 19.21972656 C38.64486568 19.23980363 36.2675637 19.26707113 33.89038086 19.30175781 C30.46716155 19.35044614 27.04459694 19.37300853 23.62109375 19.390625 C22.56353378 19.41127014 21.50597382 19.43191528 20.41636658 19.45318604 C14.02987871 19.45511457 10.19034221 18.80743626 5 15 C0.85746888 10.31239899 0.2678321 6.02622231 0 0 Z " fill="#0C3B88" transform="translate(37,76)"/>
<path d="M0 0 C0.33 0.66 0.66 1.32 1 2 C1.66 2 2.32 2 3 2 C3 8.6 3 15.2 3 22 C-2.94 21.01 -2.94 21.01 -9 20 C-9 19.67 -9 19.34 -9 19 C-6.36 19 -3.72 19 -1 19 C-1 13.72 -1 8.44 -1 3 C-3.64 3 -6.28 3 -9 3 C-9 2.67 -9 2.34 -9 2 C-6.94921875 1.77213542 -4.8984375 1.54427083 -2.84765625 1.31640625 C-0.98859771 1.18113386 -0.98859771 1.18113386 0 0 Z " fill="#1654C7" transform="translate(307,70)"/>
<path d="M0 0 C0.66 0 1.32 0 2 0 C2.35535635 3.21054595 2.30925807 4.58450301 0.34765625 7.2199707 C-0.78349609 8.31184692 -0.78349609 8.31184692 -1.9375 9.42578125 C-2.74960937 10.22177734 -3.56171875 11.01777344 -4.3984375 11.83789062 C-5.25695313 12.65451172 -6.11546875 13.47113281 -7 14.3125 C-7.85851563 15.14845703 -8.71703125 15.98441406 -9.6015625 16.84570312 C-11.72360146 18.90879656 -13.85641027 20.95934566 -16 23 C-17.9375 22.1875 -17.9375 22.1875 -20 21 C-20.33 20.01 -20.66 19.02 -21 18 C-20.360625 17.87625 -19.72125 17.7525 -19.0625 17.625 C-18.381875 17.41875 -17.70125 17.2125 -17 17 C-16.67 16.34 -16.34 15.68 -16 15 C-16 15.66 -16 16.32 -16 17 C-12.2248296 15.89398417 -12.2248296 15.89398417 -9.875 12.9375 C-9.58625 12.298125 -9.2975 11.65875 -9 11 C-8.01 10.67 -7.02 10.34 -6 10 C-5.26676204 7.98491642 -5.26676204 7.98491642 -5 6 C-4.01 6.33 -3.02 6.66 -2 7 C-2.04125 6.21625 -2.0825 5.4325 -2.125 4.625 C-2 2 -2 2 0 0 Z " fill="#274C93" transform="translate(56,235)"/>
<path d="M0 0 C0.99 0 1.98 0 3 0 C3.75131468 12.43161732 4.25646855 24.5899568 3 37 C2.34 37 1.68 37 1 37 C-0.02576036 33.92271893 0.03223946 32.90078266 0.5 29.8125 C1.04617327 25.05799163 0.93576502 20.50940998 0.625 15.75 C0.58181641 15.07686768 0.53863281 14.40373535 0.49414062 13.71020508 C0.27287745 10.64396726 -0.05943896 7.66806815 -0.6015625 4.640625 C-1 2 -1 2 0 0 Z " fill="#0954CB" transform="translate(23,197)"/>
<path d="M0 0 C0.33 0.99 0.66 1.98 1 3 C-0.65959925 5.78575588 -2.40938134 8.31921056 -4.53515625 10.76953125 C-6.43988851 13.66980357 -6.97646131 16.36410147 -7.6875 19.75 C-7.93886719 20.92046875 -8.19023438 22.0909375 -8.44921875 23.296875 C-8.72185547 24.63492188 -8.72185547 24.63492188 -9 26 C-9.66 26 -10.32 26 -11 26 C-11 29.63 -11 33.26 -11 37 C-11.33 37 -11.66 37 -12 37 C-12.72794193 23.14888277 -9.82193783 13.42002923 -2 2 C-1.34 1.34 -0.68 0.68 0 0 Z " fill="#D9ECF9" transform="translate(65,183)"/>
<path d="M0 0 C1.32 0 2.64 0 4 0 C4 0.99 4 1.98 4 3 C4.99 3.33 5.98 3.66 7 4 C6.34 5.32 5.68 6.64 5 8 C-19.255 7.505 -19.255 7.505 -44 7 C-44 6.67 -44 6.34 -44 6 C-42.68281982 5.97494385 -41.36563965 5.9498877 -40.00854492 5.92407227 C-35.12758438 5.82999118 -30.24676592 5.72977208 -25.3659668 5.62768555 C-23.2523938 5.58433936 -21.13878586 5.54266406 -19.02514648 5.50268555 C-15.98931336 5.44497551 -12.95365611 5.38128299 -9.91796875 5.31640625 C-8.97100632 5.29969376 -8.02404388 5.28298126 -7.04838562 5.26576233 C-6.16769913 5.24581711 -5.28701263 5.22587189 -4.37963867 5.20532227 C-3.60464523 5.18977798 -2.82965179 5.1742337 -2.03117371 5.15821838 C0.20332493 5.06644623 0.20332493 5.06644623 3 4 C3 3.01 3 2.02 3 1 C2.34 1 1.68 1 1 1 C0.67 1.66 0.34 2.32 0 3 C0 2.01 0 1.02 0 0 Z " fill="#5C87BC" transform="translate(98,89)"/>
<path d="M0 0 C1.32 0.33 2.64 0.66 4 1 C-2.6 7.6 -9.2 14.2 -16 21 C-16.33 20.01 -16.66 19.02 -17 18 C-15.890625 16.17578125 -15.890625 16.17578125 -14.25 14.3125 C-13.45335938 13.37857422 -13.45335938 13.37857422 -12.640625 12.42578125 C-11 11 -11 11 -8 11 C-6.76078698 8.02588876 -5.69941596 5.14737182 -5 2 C-3.68 2 -2.36 2 -1 2 C-0.67 1.34 -0.34 0.68 0 0 Z " fill="#DAEDF6" transform="translate(99,96)"/>
<path d="M0 0 C15.84 0.495 15.84 0.495 32 1 C32 1.66 32 2.32 32 3 C21.44 3 10.88 3 0 3 C0 2.01 0 1.02 0 0 Z " fill="#1B5DD4" transform="translate(50,90)"/>
<path d="M0 0 C7.02918412 -0.05073645 14.05832095 -0.08574896 21.08764648 -0.10986328 C23.47861496 -0.11991686 25.86957115 -0.13356164 28.26049805 -0.15087891 C31.6984358 -0.1751551 35.13621088 -0.18648965 38.57421875 -0.1953125 C39.64210129 -0.20563507 40.70998383 -0.21595764 41.81022644 -0.22659302 C42.81088638 -0.22674408 43.81154633 -0.22689514 44.8425293 -0.22705078 C45.71967087 -0.231492 46.59681244 -0.23593323 47.50053406 -0.24050903 C50.3624887 0.03488017 52.43972082 0.69542098 55 2 C55.66 2.99 56.32 3.98 57 5 C53.87464745 5 52.65164593 4.50259936 50 3 C49.505 2.505 49.505 2.505 49 2 C47.46617321 1.8774645 45.92689481 1.82222062 44.38842773 1.79467773 C43.40748642 1.77473251 42.4265451 1.75478729 41.4158783 1.73423767 C39.81589745 1.70916893 39.81589745 1.70916893 38.18359375 1.68359375 C37.0974025 1.66281265 36.01121124 1.64203156 34.8921051 1.62062073 C31.40730373 1.55500558 27.92242432 1.49618489 24.4375 1.4375 C22.08137199 1.39432615 19.72525201 1.35071224 17.36914062 1.30664062 C11.57951063 1.19931208 5.78980225 1.09756835 0 1 C0 0.67 0 0.34 0 0 Z " fill="#245AB0" transform="translate(106,64)"/>
<path d="M0 0 C0.66 0 1.32 0 2 0 C1.96519531 1.25554687 1.93039063 2.51109375 1.89453125 3.8046875 C1.48893736 18.46402789 1.48893736 18.46402789 6.8125 31.875 C7.4003125 32.926875 7.4003125 32.926875 8 34 C7.1875 36.3125 7.1875 36.3125 6 38 C5.4465236 35.92446352 5 34.15634036 5 32 C4.01 31.67 3.02 31.34 2 31 C-0.7344563 20.24756168 -1.19891792 10.99248841 0 0 Z " fill="#193E7F" transform="translate(52,201)"/>
<path d="M0 0 C1.67542976 0.28604898 3.34385343 0.61781233 5 1 C4.67 1.66 4.34 2.32 4 3 C3.05125 3.28875 2.1025 3.5775 1.125 3.875 C-2.08009615 4.67899672 -2.08009615 4.67899672 -3.37109375 7.0546875 C-5 9 -5 9 -7.48046875 9.390625 C-8.82044922 9.32101563 -8.82044922 9.32101563 -10.1875 9.25 C-11.08855469 9.21390625 -11.98960937 9.1778125 -12.91796875 9.140625 C-13.60503906 9.09421875 -14.29210937 9.0478125 -15 9 C-14.01 8.319375 -14.01 8.319375 -13 7.625 C-12.34 7.08875 -11.68 6.5525 -11 6 C-11 5.34 -11 4.68 -11 4 C-10.28972656 3.79503906 -9.57945312 3.59007812 -8.84765625 3.37890625 C-7.92855469 3.10949219 -7.00945312 2.84007812 -6.0625 2.5625 C-5.14597656 2.29566406 -4.22945312 2.02882812 -3.28515625 1.75390625 C-1.0597507 1.20973949 -1.0597507 1.20973949 0 0 Z " fill="#E9EDF5" transform="translate(156,182)"/>
<path d="M0 0 C3.96 0 7.92 0 12 0 C10.68 0.33 9.36 0.66 8 1 C8 1.66 8 2.32 8 3 C6.948125 3.350625 5.89625 3.70125 4.8125 4.0625 C0.89294569 5.69366805 -0.74561242 7.9793338 -2.859375 11.57421875 C-3.23578125 12.04472656 -3.6121875 12.51523438 -4 13 C-4.99 13 -5.98 13 -7 13 C-6.67 10.69 -6.34 8.38 -6 6 C-5.195625 5.7525 -4.39125 5.505 -3.5625 5.25 C-2.2940625 4.63125 -2.2940625 4.63125 -1 4 C-0.67 2.68 -0.34 1.36 0 0 Z " fill="#DDEFF3" transform="translate(42,60)"/>
<path d="M0 0 C1.45792884 -0.05399736 2.91642712 -0.09279177 4.375 -0.125 C5.18710938 -0.14820312 5.99921875 -0.17140625 6.8359375 -0.1953125 C9 0 9 0 11 2 C10.01 2.495 10.01 2.495 9 3 C9 4.65 9 6.3 9 8 C8.05125 8.309375 7.1025 8.61875 6.125 8.9375 C3.13919592 9.87394742 3.13919592 9.87394742 1 11 C1.66 8.03 2.32 5.06 3 2 C2.01 2 1.02 2 0 2 C0 1.34 0 0.68 0 0 Z " fill="#F8F3E7" transform="translate(82,99)"/>
<path d="M0 0 C0.99 0.33 1.98 0.66 3 1 C1.90777974 4.27666077 1.17281146 4.91609231 -1.4375 7 C-3.88774632 8.96428932 -5.21380578 10.32070868 -7 13 C-7.66 13 -8.32 13 -9 13 C-9 13.66 -9 14.32 -9 15 C-10.32 14.34 -11.64 13.68 -13 13 C-12.154375 12.34 -11.30875 11.68 -10.4375 11 C-6.50076779 7.73974683 -3.27623206 3.90627668 0 0 Z " fill="#D4E3EF" transform="translate(95,152)"/>
<path d="M0 0 C0.99 0.33 1.98 0.66 3 1 C3.12375 2.11375 3.2475 3.2275 3.375 4.375 C3.6465813 8.03103677 3.6465813 8.03103677 6 10 C6.66666667 12 7.33333333 14 8 16 C8.66 16.66 9.32 17.32 10 18 C13 23.42307692 13 23.42307692 13 27 C6.23535977 19.10467062 0.707121 10.60681496 0 0 Z " fill="#1F4794" transform="translate(21,226)"/>
<path d="M0 0 C0.66 0.33 1.32 0.66 2 1 C0.57573507 2.66164242 -0.84861651 4.3232093 -2.2734375 5.984375 C-3.40537007 7.30581665 -4.53563964 8.62868503 -5.6640625 9.953125 C-6.44910156 10.87351562 -6.44910156 10.87351562 -7.25 11.8125 C-7.72953125 12.37582031 -8.2090625 12.93914062 -8.703125 13.51953125 C-9.75610282 14.7215752 -10.87002833 15.87002833 -12 17 C-12.474375 17.86625 -12.94875 18.7325 -13.4375 19.625 C-13.953125 20.40875 -14.46875 21.1925 -15 22 C-15.99 22 -16.98 22 -18 22 C-17.525625 21.4225 -17.05125 20.845 -16.5625 20.25 C-14.90603031 18.17786752 -14.90603031 18.17786752 -14.59985352 16.07519531 C-13.85525556 13.49925611 -12.75302168 12.40834542 -10.83984375 10.546875 C-10.21142578 9.928125 -9.58300781 9.309375 -8.93554688 8.671875 C-8.27619141 8.03765625 -7.61683594 7.4034375 -6.9375 6.75 C-6.27427734 6.1003125 -5.61105469 5.450625 -4.92773438 4.78125 C-3.29170683 3.1805324 -1.64909088 1.58723807 0 0 Z " fill="#1A4994" transform="translate(102,97)"/>
<path d="M0 0 C0.8125 2.1875 0.8125 2.1875 1 5 C-1.88128461 8.64397759 -4.5785336 10.61039627 -9 12 C-9.33 11.01 -9.66 10.02 -10 9 C-8.35 8.67 -6.7 8.34 -5 8 C-5.33 6.35 -5.66 4.7 -6 3 C-2.25 0 -2.25 0 0 0 Z " fill="#ECF2F6" transform="translate(81,113)"/>
<path d="M0 0 C2.91517292 1.07401108 4.77810176 1.77810176 7 4 C7.17532289 6.86888581 7.23137614 9.63992645 7.1953125 12.5078125 C7.19106766 13.76874222 7.19106766 13.76874222 7.18673706 15.05514526 C7.1755243 17.74524046 7.15041803 20.4350051 7.125 23.125 C7.1149716 24.94660978 7.10584551 26.76822477 7.09765625 28.58984375 C7.07558142 33.06002358 7.04104434 37.52995571 7 42 C6.67 42 6.34 42 6 42 C6 30.12 6 18.24 6 6 C4.68 5.34 3.36 4.68 2 4 C0.75 1.875 0.75 1.875 0 0 Z " fill="#215DC8" transform="translate(155,66)"/>
<path d="M0 0 C0.6875 1.75 0.6875 1.75 1 4 C-0.125 6.25 -0.125 6.25 -2 8 C-4.6875 8.25 -4.6875 8.25 -7 8 C-7 8.66 -7 9.32 -7 10 C-6.01 10.33 -5.02 10.66 -4 11 C-5.32 11 -6.64 11 -8 11 C-9.25664978 8.09399739 -10 6.20395416 -10 3 C-8.63875 3.37125 -8.63875 3.37125 -7.25 3.75 C-3.91162152 4.38259327 -3.91162152 4.38259327 -1.625 2.0625 C-1.08875 1.381875 -0.5525 0.70125 0 0 Z " fill="#EBF5FB" transform="translate(44,253)"/>
<path d="M0 0 C1 3 1 3 1 5 C0.34 5 -0.32 5 -1 5 C-1 5.66 -1 6.32 -1 7 C-2.32 7 -3.64 7 -5 7 C-5.33 9.31 -5.66 11.62 -6 14 C-8.64 14.33 -11.28 14.66 -14 15 C-13.34 14.01 -12.68 13.02 -12 12 C-11.34 12 -10.68 12 -10 12 C-9.34 10.68 -8.68 9.36 -8 8 C-7.34 8 -6.68 8 -6 8 C-5.7525 7.4225 -5.505 6.845 -5.25 6.25 C-3.83316683 3.6997003 -2.12372463 1.98214299 0 0 Z " fill="#D2E1ED" transform="translate(119,128)"/>
<path d="M0 0 C7.26 0 14.52 0 22 0 C22 0.66 22 1.32 22 2 C21.41508789 2.01981934 20.83017578 2.03963867 20.22753906 2.06005859 C17.56791975 2.15553481 14.90906162 2.26512142 12.25 2.375 C11.32960938 2.4059375 10.40921875 2.436875 9.4609375 2.46875 C8.57148437 2.50742188 7.68203125 2.54609375 6.765625 2.5859375 C5.94868164 2.6173584 5.13173828 2.6487793 4.29003906 2.68115234 C1.83167042 3.02343693 0.14240001 3.7739277 -2 5 C-1.34 3.35 -0.68 1.7 0 0 Z " fill="#285EC8" transform="translate(44,64)"/>
<path d="M0 0 C0 7.26 0 14.52 0 22 C-0.66 22 -1.32 22 -2 22 C-1.97679687 20.98679688 -1.95359375 19.97359375 -1.9296875 18.9296875 C-1.9109159 17.57813242 -1.8927172 16.22656931 -1.875 14.875 C-1.85824219 14.20984375 -1.84148437 13.5446875 -1.82421875 12.859375 C-1.78152722 8.50483944 -2.40003783 5.04399886 -4 1 C-1 0 -1 0 0 0 Z " fill="#265DB7" transform="translate(304,137)"/>
<path d="M0 0 C1.09957031 0.04898438 2.19914063 0.09796875 3.33203125 0.1484375 C4.48445312 0.19226563 5.636875 0.23609375 6.82421875 0.28125 C10.63487911 0.55920405 14.37006008 0.93136359 18.14453125 1.5234375 C18.14453125 1.8534375 18.14453125 2.1834375 18.14453125 2.5234375 C10.22453125 3.0184375 10.22453125 3.0184375 2.14453125 3.5234375 C2.14453125 3.8534375 2.14453125 4.1834375 2.14453125 4.5234375 C-0.49546875 4.8534375 -3.13546875 5.1834375 -5.85546875 5.5234375 C-3.67539943 0.67373943 -3.67539943 0.67373943 0 0 Z " fill="#225ECE" transform="translate(247.85546875,138.4765625)"/>
<path d="M0 0 C2.0625 0.4375 2.0625 0.4375 4 1 C4 1.66 4 2.32 4 3 C2.57421875 4.40234375 2.57421875 4.40234375 0.6875 5.9375 C-1.66350211 7.86463171 -3.88235135 9.81719293 -6 12 C-6.99 11.67 -7.98 11.34 -9 11 C-7.58226538 7.45566346 -6.32387762 6.66193881 -3 5 C-1.79117904 2.99983534 -1.79117904 2.99983534 -1 1 C-0.67 0.67 -0.34 0.34 0 0 Z " fill="#1F4BA2" transform="translate(125,117)"/>
<path d="M0 0 C1.75881567 3.28312259 3 6.23856995 3 10 C3.66 10 4.32 10 5 10 C5 10.66 5 11.32 5 12 C6.32 12 7.64 12 9 12 C9 13.32 9 14.64 9 16 C11.97 16.33 14.94 16.66 18 17 C14 19 14 19 11.0625 18.4375 C5.40638045 15.78258674 2.23901252 11.77429545 0 6 C-0.1875 2.625 -0.1875 2.625 0 0 Z " fill="#1F4C8B" transform="translate(37,76)"/>
<path d="M0 0 C0.33 0 0.66 0 1 0 C2.35520942 8.43241416 1.67499048 16.53665785 1 25 C-1.61544851 21.11300932 -1.26003479 16.99715701 -1.1875 12.5 C-1.18685547 11.74074219 -1.18621094 10.98148438 -1.18554688 10.19921875 C-1.15747799 6.63758859 -0.95717839 3.42579159 0 0 Z " fill="#19457E" transform="translate(20,200)"/>
<path d="M0 0 C0.66 0 1.32 0 2 0 C2.4375 2.0625 2.4375 2.0625 2 5 C-1.47833281 9.69826983 -5.20230676 12.72733563 -11 14 C-9.625 12 -9.625 12 -8 10 C-7.34 10 -6.68 10 -6 10 C-5.67 8.68 -5.34 7.36 -5 6 C-4.01 6.33 -3.02 6.66 -2 7 C-2.04125 6.21625 -2.0825 5.4325 -2.125 4.625 C-2 2 -2 2 0 0 Z " fill="#2B57A3" transform="translate(56,235)"/>
<path d="M0 0 C0.66 0.33 1.32 0.66 2 1 C1.67 3.31 1.34 5.62 1 8 C0.01 8.33 -0.98 8.66 -2 9 C-2 8.34 -2 7.68 -2 7 C-3.32 6.67 -4.64 6.34 -6 6 C-2.25 1.125 -2.25 1.125 0 0 Z " fill="#DFEDF0" transform="translate(72,176)"/>
<path d="M0 0 C2.0625 0.4375 2.0625 0.4375 4 1 C2.49776416 5.20626034 -0.28550034 6.73900021 -4 9 C-4 8.34 -4 7.68 -4 7 C-4.66 6.34 -5.32 5.68 -6 5 C-5.34 5 -4.68 5 -4 5 C-3.67 3.68 -3.34 2.36 -3 1 C-2.34 1 -1.68 1 -1 1 C-0.67 0.67 -0.34 0.34 0 0 Z " fill="#0D479E" transform="translate(70,172)"/>
<path d="M0 0 C0.66 0.33 1.32 0.66 2 1 C-1.63 4.63 -5.26 8.26 -9 12 C-9 8.45930077 -8.50420193 6.21352231 -7 3 C-3.9375 1.6875 -3.9375 1.6875 -1 1 C-0.67 0.67 -0.34 0.34 0 0 Z " fill="#1A458B" transform="translate(84,161)"/>
<path d="M0 0 C0.66 0.33 1.32 0.66 2 1 C3.32860925 1.35169068 4.66158328 1.68770276 6 2 C6.33 1.34 6.66 0.68 7 0 C7 0.99 7 1.98 7 3 C6.34 3 5.68 3 5 3 C5 3.66 5 4.32 5 5 C4.34 5 3.68 5 3 5 C2.731875 5.61875 2.46375 6.2375 2.1875 6.875 C1 9 1 9 -2 11 C-2 10.01 -2 9.02 -2 8 C-1.34 8 -0.68 8 0 8 C-0.2784375 6.2984375 -0.2784375 6.2984375 -0.5625 4.5625 C-0.7790625 2.7990625 -0.7790625 2.7990625 -1 1 C-0.67 0.67 -0.34 0.34 0 0 Z " fill="#D3E0EA" transform="translate(68,123)"/>
<path d="M0 0 C1.98 0 3.96 0 6 0 C6.38133299 1.9914056 6.71325582 3.99279077 7 6 C6 7 6 7 3 8 C2.01 8 1.02 8 0 8 C0.185625 7.05125 0.37125 6.1025 0.5625 5.125 C1.28686632 2.10131207 1.28686632 2.10131207 0 0 Z " fill="#E3E9EB" transform="translate(58,233)"/>
<path d="M0 0 C-0.33 1.32 -0.66 2.64 -1 4 C-1.66 4 -2.32 4 -3 4 C-3.33 5.32 -3.66 6.64 -4 8 C-5.32 8.33 -6.64 8.66 -8 9 C-7.4140625 2.84765625 -7.4140625 2.84765625 -7 1 C-4.53721199 -0.231394 -2.7204945 -0.07159196 0 0 Z " fill="#1855B6" transform="translate(97,145)"/>
<path d="M0 0 C4.11531872 8.23063743 2.96288916 16.30720513 1 25 C0.67 25 0.34 25 0 25 C0 16.75 0 8.5 0 0 Z " fill="#F1FAEB" transform="translate(246,97)"/>
<path d="M0 0 C0.33 0 0.66 0 1 0 C1.66 5.94 2.32 11.88 3 18 C-0.63 17.67 -4.26 17.34 -8 17 C-8 16.67 -8 16.34 -8 16 C-5.36 16 -2.72 16 0 16 C0 10.72 0 5.44 0 0 Z " fill="#0750B7" transform="translate(306,73)"/>
<path d="M0 0 C3.48331435 3.01887244 4.79157144 5.56909529 6 10 C5.34 10.66 4.68 11.32 4 12 C3.773125 11.195625 3.54625 10.39125 3.3125 9.5625 C2.879375 8.716875 2.44625 7.87125 2 7 C-0.54775306 6.10613836 -0.54775306 6.10613836 -3 6 C-2.67 4.68 -2.34 3.36 -2 2 C-1.34 2 -0.68 2 0 2 C0 1.34 0 0.68 0 0 Z " fill="#E4F1F1" transform="translate(21,234)"/>
<path d="M0 0 C0.89694794 3.58779175 1.08304117 6.34618837 1 10 C0.34 9.67 -0.32 9.34 -1 9 C-1 8.34 -1 7.68 -1 7 C-1.66 7 -2.32 7 -3 7 C-3 7.66 -3 8.32 -3 9 C-4.32 8.34 -5.64 7.68 -7 7 C-4.69 4.69 -2.38 2.38 0 0 Z " fill="#D6E0E8" transform="translate(81,166)"/>
<path d="M0 0 C0 4.0116196 -1.90487068 6.42093858 -4 9.6875 C-4.3815625 10.29400391 -4.763125 10.90050781 -5.15625 11.52539062 C-6.09818472 13.02071199 -7.04831375 14.51086593 -8 16 C-8.33 15.34 -8.66 14.68 -9 14 C-8.2884375 12.6078125 -8.2884375 12.6078125 -7.5625 11.1875 C-6.01921022 8.03918886 -5.69800216 6.42264217 -6 3 C-5.195625 2.690625 -4.39125 2.38125 -3.5625 2.0625 C-1.10919595 1.23664655 -1.10919595 1.23664655 0 0 Z " fill="#1B4086" transform="translate(64,182)"/>
<path d="M0 0 C0.66 0.99 1.32 1.98 2 3 C0.6875 4.5 0.6875 4.5 -1 6 C-1.99 6 -2.98 6 -4 6 C-4.433125 7.2065625 -4.433125 7.2065625 -4.875 8.4375 C-6 11 -6 11 -8 12 C-8.66 11.34 -9.32 10.68 -10 10 C-8.625 8.5 -8.625 8.5 -7 7 C-6.34 7 -5.68 7 -5 7 C-4.731875 6.401875 -4.46375 5.80375 -4.1875 5.1875 C-3.01506533 3.02775192 -1.80630718 1.64209744 0 0 Z " fill="#325D9E" transform="translate(86,113)"/>
<path d="M0 0 C1.65 0 3.3 0 5 0 C5 1.65 5 3.3 5 5 C3.35 5.33 1.7 5.66 0 6 C0 5.34 0 4.68 0 4 C-0.66 4 -1.32 4 -2 4 C-1.34 2.68 -0.68 1.36 0 0 Z " fill="#165BDC" transform="translate(150,65)"/>
<path d="M0 0 C0.66 0 1.32 0 2 0 C4.32590854 3.63423209 4.16265833 6.77088331 4 11 C2.68 10.67 1.36 10.34 0 10 C0 6.7 0 3.4 0 0 Z " fill="#1055D4" transform="translate(50,185)"/>
<path d="M0 0 C0.66 0.33 1.32 0.66 2 1 C1.566875 1.928125 1.566875 1.928125 1.125 2.875 C-0.41711805 7.15866124 -1.18398547 11.52928212 -2 16 C-2.33 15.34 -2.66 14.68 -3 14 C-3.66 14 -4.32 14 -5 14 C-3.45730076 9.27934033 -1.92205381 4.58335908 0 0 Z " fill="#2958A9" transform="translate(57,187)"/>
<path d="M0 0 C5.28 0 10.56 0 16 0 C13.14206684 2.85793316 10.85334416 2.40799941 6.875 2.625 C5.59367188 2.69976562 4.31234375 2.77453125 2.9921875 2.8515625 C2.00476563 2.90054688 1.01734375 2.94953125 0 3 C0 2.01 0 1.02 0 0 Z " fill="#0954BA" transform="translate(248,161)"/>
<path d="M0 0 C1.5 1.1875 1.5 1.1875 3 3 C3.1875 5.6875 3.1875 5.6875 3 8 C-2.75 6.125 -2.75 6.125 -5 5 C-4.360625 4.731875 -3.72125 4.46375 -3.0625 4.1875 C-0.66868314 3.11332248 -0.66868314 3.11332248 0 0 Z " fill="#D9E4EB" transform="translate(126,121)"/>
<path d="M0 0 C6.93 0.495 6.93 0.495 14 1 C14 1.33 14 1.66 14 2 C9.38 2.33 4.76 2.66 0 3 C-0.33 4.98 -0.66 6.96 -1 9 C-1.33 9 -1.66 9 -2 9 C-2 6.69 -2 4.38 -2 2 C-1.34 2 -0.68 2 0 2 C0 1.34 0 0.68 0 0 Z " fill="#1B4A97" transform="translate(244,91)"/>
<path d="M0 0 C4 4 4 4 5.5 5.625 C7.19944086 7.18282079 8.90480222 8.06077341 11 9 C11 9.66 11 10.32 11 11 C7.2697445 10.28264317 4.16814639 9.1120976 1 7 C0.125 3.3125 0.125 3.3125 0 0 Z " fill="#D7EDF9" transform="translate(38,85)"/>
<path d="M0 0 C2.8125 -0.25 2.8125 -0.25 6 0 C7.875 2 7.875 2 9 4 C8.34 4 7.68 4 7 4 C7 4.66 7 5.32 7 6 C2.32307692 4.52307692 2.32307692 4.52307692 0.6875 1.875 C0.460625 1.25625 0.23375 0.6375 0 0 Z " fill="#2459BE" transform="translate(135,177)"/>
<path d="M0 0 C1.4540625 0.0309375 1.4540625 0.0309375 2.9375 0.0625 C2.18016726 1.4035477 1.40617264 2.73519781 0.625 4.0625 C0.19574219 4.805 -0.23351563 5.5475 -0.67578125 6.3125 C-1.36220703 7.17875 -1.36220703 7.17875 -2.0625 8.0625 C-3.0525 8.0625 -4.0425 8.0625 -5.0625 8.0625 C-4.046875 0.08258929 -4.046875 0.08258929 0 0 Z " fill="#CFE3F1" transform="translate(40.0625,64.9375)"/>
<path d="M0 0 C2.97 0.495 2.97 0.495 6 1 C6 1.99 6 2.98 6 4 C3.36 4.99 0.72 5.98 -2 7 C-2.33 5.68 -2.66 4.36 -3 3 C-2.01 3 -1.02 3 0 3 C0 2.01 0 1.02 0 0 Z " fill="#E3EBF2" transform="translate(244,234)"/>
<path d="M0 0 C-0.33 0.99 -0.66 1.98 -1 3 C-1.99 3 -2.98 3 -4 3 C-4.33 3.99 -4.66 4.98 -5 6 C-6.65 5.67 -8.3 5.34 -10 5 C-8.34220923 2.29518348 -7.54112366 1.15837766 -4.4375 0.25 C-2 0 -2 0 0 0 Z " fill="#1F50AB" transform="translate(163,174)"/>
<path d="M0 0 C0.66 0.66 1.32 1.32 2 2 C1.79107816 5.27310883 1.56305786 7.32433057 -0.5625 9.875 C-1.2740625 10.431875 -1.2740625 10.431875 -2 11 C-2.99 10.67 -3.98 10.34 -5 10 C-3.99088542 8.27473958 -2.98177083 6.54947917 -1.97265625 4.82421875 C-0.86098753 2.86180445 -0.86098753 2.86180445 0 0 Z " fill="#DDEBF8" transform="translate(164,170)"/>
<path d="M0 0 C0.66 0.66 1.32 1.32 2 2 C2.33 1.34 2.66 0.68 3 0 C3.66 0 4.32 0 5 0 C3.8141763 3.37503669 2.72426311 5.64722731 0 8 C-1.125 6.25 -1.125 6.25 -2 4 C-1.125 1.75 -1.125 1.75 0 0 Z " fill="#E1F0F4" transform="translate(28,169)"/>
<path d="M0 0 C0 3.61029169 -0.96092582 6.55806676 -2 10 C-2.99 9.67 -3.98 9.34 -5 9 C-5.3125 6.75 -5.3125 6.75 -5 4 C-2.5 1.6875 -2.5 1.6875 0 0 Z " fill="#F6F5E9" transform="translate(39,153)"/>
<path d="M0 0 C0.74955438 2.9982175 1.41070989 5.96936513 2 9 C-3.75 7.125 -3.75 7.125 -6 6 C-4.02 4.02 -2.04 2.04 0 0 Z " fill="#D3E0EA" transform="translate(103,144)"/>
<path d="M0 0 C0.33 0.66 0.66 1.32 1 2 C1.99 2.33 2.98 2.66 4 3 C3.401875 3.144375 2.80375 3.28875 2.1875 3.4375 C0.43849596 3.8872439 -1.28677023 4.42892341 -3 5 C-3.33 6.65 -3.66 8.3 -4 10 C-4.33 9.01 -4.66 8.02 -5 7 C-5.66 6.67 -6.32 6.34 -7 6 C-2.25 1.125 -2.25 1.125 0 0 Z " fill="#E7F0EF" transform="translate(109,141)"/>
<path d="M0 0 C2.31 0 4.62 0 7 0 C7.33 1.32 7.66 2.64 8 4 C3.375 6.125 3.375 6.125 0 5 C0.99 4.01 1.98 3.02 3 2 C2.01 1.67 1.02 1.34 0 1 C0 0.67 0 0.34 0 0 Z " fill="#2061CD" transform="translate(130,112)"/>
<path d="M0 0 C6.52307692 0.61538462 6.52307692 0.61538462 8.9375 2.5625 C9.288125 3.036875 9.63875 3.51125 10 4 C9.67 4.99 9.34 5.98 9 7 C7.6078125 6.0409375 7.6078125 6.0409375 6.1875 5.0625 C3.15780057 2.91377907 3.15780057 2.91377907 0 2 C0 1.34 0 0.68 0 0 Z " fill="#D2E7F2" transform="translate(154,61)"/>
<path d="M0 0 C1.65 0.33 3.3 0.66 5 1 C5.33 2.32 5.66 3.64 6 5 C3.03 5 0.06 5 -3 5 C-2.01 4.01 -1.02 3.02 0 2 C0 1.34 0 0.68 0 0 Z " fill="#1E61C8" transform="translate(145,179)"/>
<path d="M0 0 C0.99 0.66 1.98 1.32 3 2 C0.69 4.64 -1.62 7.28 -4 10 C-4.33 8.68 -4.66 7.36 -5 6 C-4.01 5.67 -3.02 5.34 -2 5 C-0.78130071 2.49552484 -0.78130071 2.49552484 0 0 Z " fill="#D6E4F7" transform="translate(45,151)"/>
<path d="M0 0 C2.67927341 4.01891012 2.15601248 6.24161923 2 11 C1.01 11 0.02 11 -1 11 C-1.125 3.375 -1.125 3.375 0 0 Z " fill="#0A52C5" transform="translate(216,150)"/>
<path d="M0 0 C0.33 0.99 0.66 1.98 1 3 C-2.21311475 8.73770492 -2.21311475 8.73770492 -6 10 C-4.6302836 6.00499382 -2.74277578 3.19990508 0 0 Z " fill="#CFE2F2" transform="translate(65,183)"/>
<path d="M0 0 C0.66 0.99 1.32 1.98 2 3 C0.6875 4.5 0.6875 4.5 -1 6 C-3 6 -5 6 -7 6 C-7 5.34 -7 4.68 -7 4 C-5.824375 3.566875 -5.824375 3.566875 -4.625 3.125 C-1.90328368 2.15087746 -1.90328368 2.15087746 0 0 Z " fill="#15499F" transform="translate(80,122)"/>
<path d="M0 0 C2.31 0.33 4.62 0.66 7 1 C6.67 1.99 6.34 2.98 6 4 C4.35 4.33 2.7 4.66 1 5 C0.67 3.35 0.34 1.7 0 0 Z " fill="#1856B4" transform="translate(126,113)"/>
<path d="M0 0 C0.66 1.32 1.32 2.64 2 4 C1.236875 4.7425 0.47375 5.485 -0.3125 6.25 C-2.4393702 8.4263323 -4.2559956 10.52167796 -6 13 C-5.51675181 7.84535266 -2.81389239 4.18449681 0 0 Z " fill="#1A418B" transform="translate(31,173)"/>
<path d="M0 0 C0.75 1.75 0.75 1.75 1 4 C-0.9375 6.25 -0.9375 6.25 -3 8 C-3.99 7.34 -4.98 6.68 -6 6 C-2.25 1.125 -2.25 1.125 0 0 Z " fill="#214496" transform="translate(65,135)"/>
<path d="M0 0 C0.99 0.33 1.98 0.66 3 1 C3.144375 2.051875 3.28875 3.10375 3.4375 4.1875 C3.87526966 7.15460549 4.37804866 10.06794366 5 13 C1.89531014 10.45979921 1.01514064 7.82629933 0 4 C0 2.68 0 1.36 0 0 Z " fill="#15438A" transform="translate(21,226)"/>
<path d="M0 0 C0.66 0 1.32 0 2 0 C3.32 2.31 4.64 4.62 6 7 C5.01 7.66 4.02 8.32 3 9 C2.01 8.67 1.02 8.34 0 8 C0.33 7.34 0.66 6.68 1 6 C1.66 6.33 2.32 6.66 3 7 C3 6.34 3 5.68 3 5 C2.34 5 1.68 5 1 5 C0.67 3.35 0.34 1.7 0 0 Z " fill="#DFEAEF" transform="translate(131,176)"/>
<path d="M0 0 C1.32 0.66 2.64 1.32 4 2 C2 5 2 5 -0.625 5.6875 C-1.800625 5.8421875 -1.800625 5.8421875 -3 6 C-1.125 1.125 -1.125 1.125 0 0 Z " fill="#1C51A7" transform="translate(57,143)"/>
<path d="M0 0 C0.33 0 0.66 0 1 0 C1 3.96 1 7.92 1 12 C0.34 12 -0.32 12 -1 12 C-2.09898702 8.70303895 -1.87124444 7.59505097 -1.0625 4.3125 C-0.86785156 3.50425781 -0.67320313 2.69601563 -0.47265625 1.86328125 C-0.31667969 1.24839844 -0.16070313 0.63351563 0 0 Z " fill="#064EBD" transform="translate(25,222)"/>
<path d="M0 0 C0.625 2.375 0.625 2.375 1 5 C0.34 5.66 -0.32 6.32 -1 7 C-1.66 6.67 -2.32 6.34 -3 6 C-3 5.01 -3 4.02 -3 3 C-3.99 3.99 -4.98 4.98 -6 6 C-5.6875 4.125 -5.6875 4.125 -5 2 C-2 0 -2 0 0 0 Z " fill="#DEE7EB" transform="translate(81,113)"/>
<path d="M0 0 C1.98 0.99 3.96 1.98 6 3 C4.68 3.33 3.36 3.66 2 4 C2 4.66 2 5.32 2 6 C2.99 6.33 3.98 6.66 5 7 C3.68 7 2.36 7 1 7 C-0.0625 4.625 -0.0625 4.625 -1 2 C-0.67 1.34 -0.34 0.68 0 0 Z " fill="#EDEEDF" transform="translate(35,257)"/>
<path d="M0 0 C0.99 0.66 1.98 1.32 3 2 C2.67 2.99 2.34 3.98 2 5 C-0.97 4.505 -0.97 4.505 -4 4 C-3.67 3.01 -3.34 2.02 -3 1 C-2.01 0.67 -1.02 0.34 0 0 Z " fill="#0F5DD1" transform="translate(138,172)"/>
<path d="M0 0 C1.32 0.33 2.64 0.66 4 1 C4 3 4 3 2.125 5.125 C0 7 0 7 -2 7 C-1.34 4.69 -0.68 2.38 0 0 Z " fill="#224C91" transform="translate(125,117)"/>
<path d="M0 0 C0.99 0.495 0.99 0.495 2 1 C2.625 3.5625 2.625 3.5625 3 6 C3.99 5.67 4.98 5.34 6 5 C5.34 6.65 4.68 8.3 4 10 C1.16625119 6.79663178 0.4794463 4.21912747 0 0 Z " fill="#D3E3F9" transform="translate(54,222)"/>
<path d="M0 0 C0.99 0.33 1.98 0.66 3 1 C2.01 1.495 2.01 1.495 1 2 C-0.13350534 4.01669827 -0.13350534 4.01669827 -1 6 C-2.32 5.67 -3.64 5.34 -5 5 C-5 4.34 -5 3.68 -5 3 C-3.68 3 -2.36 3 -1 3 C-0.67 2.01 -0.34 1.02 0 0 Z " fill="#0957C1" transform="translate(115,121)"/>
<path d="M0 0 C0 2.31 0 4.62 0 7 C-0.99 6.67 -1.98 6.34 -3 6 C-3.33 4.35 -3.66 2.7 -4 1 C-1 0 -1 0 0 0 Z " fill="#2158AD" transform="translate(304,137)"/>
<path d="M0 0 C0.33 0.66 0.66 1.32 1 2 C1.99 2.33 2.98 2.66 4 3 C3.01 3.495 3.01 3.495 2 4 C2.66 4.66 3.32 5.32 4 6 C2.35 5.67 0.7 5.34 -1 5 C-1 1 -1 1 0 0 Z " fill="#104BA5" transform="translate(69,131)"/>
<path d="M0 0 C2.12508244 3.18762365 2.5020163 5.26512223 3 9 C2.01 8.67 1.02 8.34 0 8 C0 5.36 0 2.72 0 0 Z " fill="#E8F7F5" transform="translate(54,214)"/>
<path d="M0 0 C0.99 0 1.98 0 3 0 C2.67 2.64 2.34 5.28 2 8 C1.34 8 0.68 8 0 8 C0 5.36 0 2.72 0 0 Z " fill="#0C52CB" transform="translate(216,201)"/>
<path d="M0 0 C0.66 0.33 1.32 0.66 2 1 C1.67 3.31 1.34 5.62 1 8 C0.34 7.67 -0.32 7.34 -1 7 C-1 6.01 -1 5.02 -1 4 C-1.66 3.34 -2.32 2.68 -3 2 C-2.01 1.34 -1.02 0.68 0 0 Z " fill="#D8E3EA" transform="translate(72,176)"/>
<path d="M0 0 C2.0625 0.4375 2.0625 0.4375 4 1 C3.34 2.32 2.68 3.64 2 5 C0.68 4.67 -0.64 4.34 -2 4 C-1.34 4 -0.68 4 0 4 C-0.33 3.01 -0.66 2.02 -1 1 C-0.67 0.67 -0.34 0.34 0 0 Z " fill="#2C59A4" transform="translate(70,172)"/>
<path d="M0 0 C0.66 0.99 1.32 1.98 2 3 C0.35 4.98 -1.3 6.96 -3 9 C-3.33 7.68 -3.66 6.36 -4 5 C-3.01 4.34 -2.02 3.68 -1 3 C-0.67 2.01 -0.34 1.02 0 0 Z " fill="#CFE4F5" transform="translate(38,159)"/>
<path d="M0 0 C0.99 0 1.98 0 3 0 C3 0.66 3 1.32 3 2 C3.66 2 4.32 2 5 2 C5 2.66 5 3.32 5 4 C3.68 4.33 2.36 4.66 1 5 C0.67 3.35 0.34 1.7 0 0 Z " fill="#E8EEE9" transform="translate(50,137)"/>
<path d="M0 0 C0.598125 0.20625 1.19625 0.4125 1.8125 0.625 C1.4825 1.615 1.1525 2.605 0.8125 3.625 C-0.1775 3.955 -1.1675 4.285 -2.1875 4.625 C-3.1775 3.635 -4.1675 2.645 -5.1875 1.625 C-2.1875 -0.375 -2.1875 -0.375 0 0 Z " fill="#0F50B9" transform="translate(136.1875,116.375)"/>
<path d="M0 0 C0.66 0.99 1.32 1.98 2 3 C1.67 3.99 1.34 4.98 1 6 C-0.65 5.67 -2.3 5.34 -4 5 C-2.68 3.35 -1.36 1.7 0 0 Z " fill="#2867C7" transform="translate(103,98)"/>
<path d="M0 0 C2.91517292 1.07401108 4.77810176 1.77810176 7 4 C6.67 4.99 6.34 5.98 6 7 C3.95880212 5.38405168 1.95927063 3.7143618 0 2 C0 1.34 0 0.68 0 0 Z " fill="#2861D3" transform="translate(155,66)"/>
<path d="M0 0 C0.99 0.33 1.98 0.66 3 1 C2.67 1.66 2.34 2.32 2 3 C1.34 3 0.68 3 0 3 C-0.33 3.99 -0.66 4.98 -1 6 C-2.32 5.34 -3.64 4.68 -5 4 C-2.6875 1.9375 -2.6875 1.9375 0 0 Z " fill="#1E66DD" transform="translate(47,67)"/>
<path d="M0 0 C1.11375 0.3403125 1.11375 0.3403125 2.25 0.6875 C1.92 1.3475 1.59 2.0075 1.25 2.6875 C-1.39 2.6875 -4.03 2.6875 -6.75 2.6875 C-4.29511132 0.41445492 -3.41240272 -0.38777304 0 0 Z " fill="#D6E5F0" transform="translate(158.75,182.3125)"/>
<path d="M0 0 C1.98 0 3.96 0 6 0 C6 1.65 6 3.3 6 5 C5.01 4.34 4.02 3.68 3 3 C2.01 3 1.02 3 0 3 C0 2.01 0 1.02 0 0 Z " fill="#1658B8" transform="translate(156,169)"/>
<path d="M0 0 C0.33 0.99 0.66 1.98 1 3 C-0.65 4.32 -2.3 5.64 -4 7 C-3.6875 4.625 -3.6875 4.625 -3 2 C-2.01 1.34 -1.02 0.68 0 0 Z " fill="#E0EDF9" transform="translate(52,145)"/>
</svg>
